<svg xmlns="http://www.w3.org/2000/svg" xmlns:xlink="http://www.w3.org/1999/xlink" width="96" height="60" viewBox="0 0 96 60">
    <g>
        <path d="M 16.152344 48.089844 C 17.207031 47.964844 18.0625 47.226562 18.726562 45.863281 C 19.40625 44.488281 20.054688 42.21875 20.675781 39.046875 L 23.679688 23.464844 L 30.394531 23.464844 L 27.394531 39.046875 C 26.632812 43.078125 25.617188 45.886719 24.355469 47.472656 C 23.699219 48.292969 22.949219 48.871094 22.113281 49.203125 C 21.277344 49.53125 20.40625 49.695312 19.5 49.695312 C 18.589844 49.695312 17.84375 49.53125 17.253906 49.203125 C 16.664062 48.871094 16.296875 48.5 16.152344 48.089844 Z M 31.851562 24.699219 C 32.140625 24.121094 32.601562 23.675781 33.230469 23.359375 C 33.859375 23.035156 34.609375 22.875 35.476562 22.875 C 36.835938 22.875 37.925781 23.363281 38.742188 24.339844 C 39.558594 25.320312 39.964844 26.878906 39.964844 29.019531 L 39.964844 40.035156 L 47.058594 23.492188 L 50.710938 23.492188 L 51.546875 39.109375 L 51.453125 40.003906 L 58.824219 23.492188 L 63.0625 23.492188 L 53.15625 43.832031 L 46.558594 43.832031 L 45.941406 34.449219 L 41.851562 43.832031 L 34.390625 43.832031 L 33.460938 29.019531 C 33.402344 27.90625 33.222656 26.984375 32.921875 26.253906 C 32.621094 25.527344 32.265625 25.007812 31.851562 24.699219 Z M 64.210938 28.800781 C 63.511719 28.269531 63.160156 27.429688 63.160156 26.289062 C 63.160156 25.144531 63.535156 24.277344 64.289062 23.679688 C 65.042969 23.082031 66.070312 22.785156 67.367188 22.785156 C 68.195312 22.785156 69.589844 22.929688 71.550781 23.21875 L 73.652344 23.527344 C 74.355469 23.605469 75.074219 23.648438 75.808594 23.648438 C 76.539062 23.648438 77.152344 23.492188 77.648438 23.183594 C 78.390625 23.84375 78.761719 24.648438 78.761719 25.59375 C 78.761719 26.539062 78.339844 27.351562 77.496094 28.03125 C 76.628906 28.75 75.636719 29.109375 74.519531 29.109375 C 73.984375 29.109375 73.28125 29.039062 72.414062 28.894531 C 71.40625 32.0625 70.902344 34.75 70.902344 36.949219 C 70.902344 39.152344 71.457031 40.828125 72.570312 41.980469 C 72.054688 42.90625 71.414062 43.546875 70.648438 43.90625 C 69.886719 44.269531 68.933594 44.449219 67.785156 44.449219 C 66.640625 44.449219 65.710938 44.132812 65 43.507812 C 64.289062 42.878906 63.933594 41.917969 63.933594 40.621094 C 63.933594 39.117188 64.347656 37.132812 65.171875 34.664062 C 66 32.21875 67.03125 30.058594 68.269531 28.183594 C 67.667969 28.125 67.058594 28.09375 66.441406 28.09375 C 65.160156 28.09375 64.417969 28.328125 64.210938 28.800781 Z M 64.210938 28.800781 "/>
    </g>
</svg>
